<svg xmlns="http://www.w3.org/2000/svg" xmlns:xlink="http://www.w3.org/1999/xlink" width="500" zoomAndPan="magnify" viewBox="0 0 375 374.999991" height="500" preserveAspectRatio="xMidYMid meet" version="1.0"><defs><clipPath id="e51c59e125"><path d="M 20.421875 20.421875 L 354.921875 20.421875 L 354.921875 354.921875 L 20.421875 354.921875 Z M 20.421875 20.421875 " clip-rule="nonzero"/></clipPath><clipPath id="ed1d96850a"><path d="M 73.992188 159 L 121 159 L 121 216 L 73.992188 216 Z M 73.992188 159 " clip-rule="nonzero"/></clipPath><clipPath id="8022608cc7"><path d="M 159 73.992188 L 216 73.992188 L 216 121 L 159 121 Z M 159 73.992188 " clip-rule="nonzero"/></clipPath><clipPath id="93da1fbc1c"><path d="M 254 159 L 301.242188 159 L 301.242188 216 L 254 216 Z M 254 159 " clip-rule="nonzero"/></clipPath></defs><g clip-path="url(#e51c59e125)"><path fill="#33cf96" d="M 187.496094 20.421875 C 95.3125 20.421875 20.421875 95.3125 20.421875 187.496094 C 20.421875 279.675781 95.3125 354.570312 187.496094 354.570312 C 279.675781 354.570312 354.570312 279.675781 354.570312 187.496094 C 354.570312 95.3125 279.675781 20.421875 187.496094 20.421875 Z M 187.496094 27.683594 C 275.847656 27.683594 347.304688 99.140625 347.304688 187.496094 C 347.304688 275.847656 275.847656 347.304688 187.496094 347.304688 C 99.140625 347.304688 27.683594 275.847656 27.683594 187.496094 C 27.683594 99.140625 99.140625 27.683594 187.496094 27.683594 Z M 187.496094 27.683594 " fill-opacity="1" fill-rule="nonzero"/></g><path fill="#33cf96" d="M 155.605469 110.519531 L 154.542969 113.15625 C 151.460938 120.792969 149.542969 128.882812 148.84375 137.191406 L 148.609375 139.980469 L 151.402344 140.207031 C 156.855469 140.644531 162.160156 141.539062 167.175781 142.855469 L 169.222656 143.394531 L 170.292969 141.566406 C 172.917969 137.074219 176.039062 132.691406 179.574219 128.539062 L 181.386719 126.40625 L 179.246094 124.605469 C 172.871094 119.214844 165.792969 114.851562 158.21875 111.636719 Z M 173.507812 127.117188 C 170.957031 130.292969 168.625 133.59375 166.558594 136.945312 C 162.722656 136.035156 158.742188 135.351562 154.683594 134.910156 C 155.378906 129.089844 156.722656 123.398438 158.6875 117.949219 C 163.921875 120.414062 168.898438 123.488281 173.507812 127.117188 Z M 173.507812 127.117188 " fill-opacity="1" fill-rule="nonzero"/><path fill="#33cf96" d="M 187.5 300.996094 L 189.027344 300 C 193.769531 296.90625 198.238281 293.28125 202.304688 289.214844 C 206.53125 284.992188 210.351562 280.203125 213.65625 274.988281 L 215.398438 272.25 L 212.421875 270.9375 C 204.003906 267.238281 196.234375 262.328125 189.328125 256.351562 L 187.5 254.769531 L 185.675781 256.351562 C 178.75 262.34375 170.980469 267.253906 162.578125 270.945312 L 159.609375 272.253906 L 161.34375 274.988281 C 164.652344 280.207031 168.464844 284.996094 172.683594 289.214844 C 176.734375 293.265625 181.207031 296.890625 185.980469 299.996094 Z M 167.824219 274.671875 C 174.863281 271.285156 181.472656 267.070312 187.496094 262.113281 C 193.515625 267.0625 200.121094 271.277344 207.175781 274.667969 C 204.527344 278.503906 201.5625 282.0625 198.355469 285.269531 C 195 288.621094 191.351562 291.65625 187.5 294.304688 C 183.617188 291.644531 179.964844 288.609375 176.625 285.269531 C 173.421875 282.0625 170.46875 278.507812 167.824219 274.671875 Z M 167.824219 274.671875 " fill-opacity="1" fill-rule="nonzero"/><path fill="#33cf96" d="M 219.375 264.492188 L 220.4375 261.855469 C 223.523438 254.210938 225.4375 246.121094 226.132812 237.820312 L 226.367188 235.03125 L 223.578125 234.804688 C 220.75 234.578125 218.453125 234.3125 216.214844 233.949219 C 214.960938 233.738281 213.753906 233.511719 212.574219 233.269531 C 211.382812 233.027344 210.289062 232.78125 209.226562 232.515625 L 205.765625 231.617188 L 204.695312 233.445312 C 202.085938 237.917969 198.960938 242.296875 195.417969 246.464844 L 193.605469 248.597656 L 195.742188 250.402344 C 202.101562 255.777344 209.171875 260.140625 216.753906 263.371094 Z M 201.484375 247.886719 C 204.042969 244.703125 206.371094 241.410156 208.433594 238.066406 C 209.394531 238.296875 210.394531 238.519531 211.515625 238.75 C 212.703125 238.992188 213.972656 239.226562 215.457031 239.480469 C 216.972656 239.726562 218.539062 239.925781 220.296875 240.109375 C 219.601562 245.90625 218.261719 251.59375 216.296875 257.054688 C 211.046875 254.578125 206.078125 251.5 201.484375 247.886719 Z M 201.484375 247.886719 " fill-opacity="1" fill-rule="nonzero"/><g clip-path="url(#ed1d96850a)"><path fill="#33cf96" d="M 102.792969 215.433594 L 104.085938 212.449219 C 106.25 207.492188 108.75 202.867188 111.5 198.71875 L 113.050781 196.449219 C 113.210938 196.21875 113.386719 195.984375 113.574219 195.742188 L 114.824219 194.027344 C 115.304688 193.386719 115.765625 192.804688 116.238281 192.214844 C 116.601562 191.742188 117.066406 191.175781 117.824219 190.269531 L 120.222656 187.515625 L 118.632812 185.679688 C 117.210938 184.039062 115.859375 182.363281 114.503906 180.546875 C 113.59375 179.351562 112.648438 178.007812 111.527344 176.328125 C 108.757812 172.152344 106.257812 167.523438 104.085938 162.570312 L 102.789062 159.59375 L 100.046875 161.324219 C 94.800781 164.636719 90.003906 168.457031 85.773438 172.6875 C 81.71875 176.75 78.085938 181.222656 74.992188 185.984375 L 73.992188 187.511719 L 74.992188 189.03125 C 78.101562 193.8125 81.730469 198.285156 85.777344 202.332031 C 90.003906 206.5625 94.804688 210.382812 100.039062 213.691406 Z M 114.589844 187.9375 Z M 80.683594 187.511719 C 83.34375 183.628906 86.382812 179.976562 89.722656 176.632812 C 92.921875 173.433594 96.492188 170.472656 100.351562 167.8125 C 102.308594 171.929688 104.503906 175.824219 106.882812 179.417969 C 108.089844 181.226562 109.109375 182.671875 110.171875 184.066406 C 111.03125 185.214844 111.9375 186.367188 112.871094 187.5 C 112.472656 187.980469 112.132812 188.40625 111.867188 188.757812 C 111.304688 189.445312 110.722656 190.195312 110.078125 191.058594 L 109.113281 192.390625 C 108.863281 192.71875 108.613281 193.054688 108.328125 193.46875 L 106.867188 195.605469 C 104.488281 199.199219 102.296875 203.09375 100.347656 207.203125 C 96.484375 204.542969 92.917969 201.582031 89.726562 198.382812 C 86.386719 195.050781 83.351562 191.394531 80.683594 187.511719 Z M 80.683594 187.511719 " fill-opacity="1" fill-rule="nonzero"/></g><path fill="#33cf96" d="M 155.605469 264.496094 L 158.226562 263.382812 C 165.792969 260.160156 172.867188 255.792969 179.246094 250.40625 L 181.386719 248.601562 L 179.574219 246.46875 C 176.035156 242.304688 172.910156 237.921875 170.292969 233.441406 L 169.226562 231.613281 L 167.175781 232.152344 C 162.152344 233.46875 156.84375 234.359375 151.398438 234.800781 L 148.609375 235.027344 L 148.84375 237.816406 C 149.546875 246.140625 151.464844 254.230469 154.542969 261.867188 Z M 166.558594 238.054688 C 168.617188 241.40625 170.953125 244.703125 173.507812 247.886719 C 168.898438 251.519531 163.921875 254.597656 158.6875 257.0625 C 156.722656 251.601562 155.378906 245.90625 154.683594 240.09375 C 158.746094 239.652344 162.726562 238.96875 166.558594 238.054688 Z M 166.558594 238.054688 " fill-opacity="1" fill-rule="nonzero"/><path fill="#33cf96" d="M 107.222656 267.753906 L 109.007812 268.125 C 114.46875 269.28125 120.136719 269.867188 125.863281 269.867188 C 132.011719 269.867188 138.15625 269.191406 144.132812 267.859375 L 147.308594 267.152344 L 146.125 264.121094 C 142.792969 255.570312 140.761719 246.601562 140.097656 237.46875 L 139.921875 235.066406 L 137.515625 234.886719 C 128.363281 234.21875 119.386719 232.191406 110.84375 228.867188 L 107.820312 227.6875 L 107.113281 230.851562 C 105.769531 236.792969 105.089844 242.882812 105.089844 248.957031 C 105.089844 254.683594 105.683594 260.410156 106.851562 265.964844 Z M 111.917969 235.210938 C 119.292969 237.800781 126.953125 239.492188 134.734375 240.25 C 135.488281 248.019531 137.183594 255.675781 139.769531 263.046875 C 130.554688 264.710938 121.003906 264.703125 111.957031 263.023438 C 111.101562 258.40625 110.667969 253.679688 110.667969 248.957031 C 110.667969 244.371094 111.089844 239.757812 111.917969 235.210938 Z M 111.917969 235.210938 " fill-opacity="1" fill-rule="nonzero"/><path fill="#33cf96" d="M 110.507812 219.398438 L 113.144531 220.460938 C 120.777344 223.535156 128.863281 225.449219 137.175781 226.152344 L 139.96875 226.382812 L 140.191406 223.59375 C 140.632812 218.152344 141.519531 212.84375 142.839844 207.820312 L 143.378906 205.769531 L 141.550781 204.703125 C 137.078125 202.09375 132.695312 198.972656 128.445312 195.359375 L 126.300781 193.757812 L 124.058594 196.378906 C 123.671875 196.835938 123.339844 197.242188 122.929688 197.765625 C 122.699219 198.054688 122.460938 198.351562 122.25 198.648438 L 121.511719 199.59375 C 121.121094 200.117188 120.746094 200.625 120.191406 201.410156 L 118.613281 203.671875 L 118.625 203.679688 C 115.917969 207.773438 113.5625 212.183594 111.621094 216.78125 Z M 123.292969 206.730469 L 126.285156 202.535156 C 126.457031 202.332031 126.617188 202.128906 126.78125 201.898438 C 126.882812 201.757812 126.992188 201.617188 127.097656 201.484375 C 130.28125 204.046875 133.578125 206.378906 136.929688 208.441406 C 136.019531 212.265625 135.335938 216.246094 134.894531 220.304688 C 129.070312 219.605469 123.382812 218.265625 117.925781 216.3125 C 119.5 212.960938 121.300781 209.734375 123.292969 206.730469 Z M 123.292969 206.730469 " fill-opacity="1" fill-rule="nonzero"/><path fill="#33cf96" d="M 143.378906 169.222656 L 142.839844 167.171875 C 141.519531 162.160156 140.632812 156.859375 140.191406 151.414062 L 139.96875 148.621094 L 137.175781 148.859375 C 128.839844 149.5625 120.75 151.480469 113.140625 154.554688 L 110.519531 155.617188 L 111.617188 158.230469 C 113.570312 162.839844 115.964844 167.304688 118.785156 171.566406 C 119.628906 172.820312 120.539062 174.113281 121.503906 175.40625 C 121.652344 175.601562 121.804688 175.789062 121.992188 176.015625 L 122.207031 176.28125 C 122.964844 177.265625 123.773438 178.261719 124.605469 179.242188 L 126.414062 181.386719 L 128.546875 179.566406 C 132.699219 176.03125 137.070312 172.910156 141.550781 170.285156 Z M 127.117188 173.511719 C 126.949219 173.300781 126.785156 173.085938 126.625 172.875 L 125.96875 172.066406 C 125.070312 170.855469 124.210938 169.644531 123.390625 168.417969 C 121.347656 165.335938 119.515625 162.074219 117.9375 158.703125 C 123.375 156.746094 129.066406 155.402344 134.898438 154.703125 C 135.339844 158.761719 136.023438 162.738281 136.933594 166.558594 C 133.578125 168.628906 130.285156 170.960938 127.117188 173.511719 Z M 127.117188 173.511719 " fill-opacity="1" fill-rule="nonzero"/><path fill="#33cf96" d="M 105.089844 126.066406 C 105.089844 132.136719 105.769531 138.226562 107.109375 144.164062 L 107.824219 147.332031 L 110.84375 146.148438 C 119.40625 142.804688 128.375 140.769531 137.515625 140.105469 L 139.921875 139.929688 L 140.097656 137.523438 C 140.757812 128.40625 142.789062 119.441406 146.125 110.882812 L 147.304688 107.859375 L 144.136719 107.144531 C 132.574219 104.550781 120.429688 104.457031 109.015625 106.871094 L 107.234375 107.246094 L 106.863281 109.023438 C 105.6875 114.582031 105.089844 120.3125 105.089844 126.066406 Z M 111.96875 111.976562 C 121.023438 110.296875 130.578125 110.296875 139.777344 111.960938 C 137.183594 119.335938 135.488281 126.988281 134.734375 134.746094 C 126.960938 135.5 119.300781 137.199219 111.917969 139.800781 C 111.089844 135.257812 110.671875 130.644531 110.671875 126.066406 C 110.667969 121.328125 111.105469 116.597656 111.96875 111.976562 Z M 111.96875 111.976562 " fill-opacity="1" fill-rule="nonzero"/><path fill="#33cf96" d="M 222.140625 202.746094 L 222.253906 202.347656 C 222.328125 202.105469 222.421875 201.875 222.546875 201.625 C 222.621094 201.476562 222.695312 201.332031 222.785156 201.1875 L 223.0625 200.84375 C 223.167969 200.714844 223.28125 200.59375 223.449219 200.429688 L 223.695312 200.203125 C 223.835938 200.09375 224.007812 199.992188 224.199219 199.882812 L 224.441406 199.710938 C 229.933594 196.96875 235.128906 193.585938 239.886719 189.660156 L 242.492188 187.507812 L 239.886719 185.355469 C 235.15625 181.441406 229.984375 178.074219 224.632812 175.394531 L 224.300781 175.195312 C 224.074219 175.066406 223.859375 174.929688 223.675781 174.777344 L 223.433594 174.558594 C 223.28125 174.414062 223.144531 174.265625 223.015625 174.101562 C 222.964844 174.042969 222.914062 173.980469 222.863281 173.925781 L 222.808594 173.851562 C 222.679688 173.652344 222.558594 173.433594 222.449219 173.195312 C 222.382812 173.0625 222.339844 172.921875 222.300781 172.796875 C 222.230469 172.59375 222.175781 172.421875 222.136719 172.234375 C 222.105469 172.09375 222.09375 171.953125 222.082031 171.808594 C 222.066406 171.667969 222.0625 171.53125 222.066406 171.304688 C 222.066406 171.179688 222.058594 171.050781 222.085938 170.875 L 222.160156 170.535156 C 222.199219 170.378906 222.226562 170.222656 222.238281 170.0625 C 222.554688 169.097656 222.847656 168.128906 223.230469 166.894531 C 224.4375 162.683594 225.3125 158.335938 225.839844 153.96875 C 225.898438 153.496094 225.9375 153.039062 226.007812 152.335938 L 226.351562 148.617188 L 222.992188 148.9375 C 216.859375 149.527344 210.800781 150.808594 204.972656 152.753906 C 202.9375 153.429688 200.6875 152.496094 199.726562 150.582031 C 196.972656 145.09375 193.582031 139.886719 189.648438 135.113281 L 187.492188 132.5 L 185.339844 135.109375 C 181.425781 139.855469 178.039062 145.0625 175.269531 150.582031 C 174.308594 152.5 172.054688 153.4375 170.023438 152.753906 C 164.183594 150.8125 158.105469 149.527344 151.960938 148.9375 L 148.585938 148.613281 L 148.914062 151.980469 C 149.503906 158.125 150.789062 164.195312 152.726562 170.019531 C 153.40625 172.050781 152.472656 174.304688 150.5625 175.265625 C 145.046875 178.039062 139.847656 181.433594 135.085938 185.363281 L 132.488281 187.515625 L 135.09375 189.664062 C 139.851562 193.589844 145.050781 196.972656 150.550781 199.722656 C 152.46875 200.683594 153.40625 202.941406 152.726562 204.972656 C 150.789062 210.8125 149.503906 216.886719 148.914062 223.035156 L 148.585938 226.40625 L 151.960938 226.082031 C 158.105469 225.488281 164.183594 224.207031 170.027344 222.261719 C 172 221.597656 174.320312 222.539062 175.269531 224.4375 C 178.035156 229.957031 181.425781 235.15625 185.339844 239.902344 L 187.488281 242.515625 L 189.648438 239.902344 C 193.582031 235.128906 196.976562 229.925781 199.726562 224.433594 C 200.691406 222.507812 202.964844 221.578125 204.988281 222.273438 C 207.054688 222.96875 209.121094 223.566406 211.296875 224.097656 C 213.265625 224.585938 215.378906 225.019531 217.769531 225.417969 C 219.460938 225.695312 221.21875 225.917969 222.996094 226.085938 L 226.347656 226.410156 L 225.992188 222.523438 C 225.945312 222.015625 225.898438 221.511719 225.835938 221.042969 C 225.308594 216.671875 224.433594 212.328125 223.148438 207.855469 C 222.851562 206.886719 222.550781 205.917969 222.242188 204.910156 L 222.164062 204.484375 L 222.082031 204.144531 C 222.0625 203.96875 222.0625 203.796875 222.0625 203.621094 C 222.0625 203.5 222.0625 203.378906 222.078125 203.21875 C 222.09375 203.054688 222.105469 202.898438 222.140625 202.746094 Z M 220.609375 204.839844 Z M 221.957031 194.71875 C 221.753906 194.820312 221.554688 194.941406 221.324219 195.101562 C 220.964844 195.316406 220.578125 195.558594 220.253906 195.824219 C 219.992188 196.019531 219.761719 196.238281 219.519531 196.480469 C 219.242188 196.742188 218.984375 197.023438 218.804688 197.242188 C 218.628906 197.414062 218.472656 197.589844 218.335938 197.777344 C 218.214844 197.945312 218.117188 198.121094 218.128906 198.121094 C 218.128906 198.121094 218.132812 198.121094 218.136719 198.117188 C 217.917969 198.445312 217.742188 198.78125 217.566406 199.121094 C 217.300781 199.644531 217.089844 200.175781 216.867188 200.90625 C 216.796875 201.144531 216.726562 201.378906 216.675781 201.625 C 216.59375 202.046875 216.550781 202.453125 216.523438 202.746094 C 216.5 203.035156 216.488281 203.324219 216.488281 203.621094 C 216.488281 203.984375 216.496094 204.371094 216.542969 204.765625 C 216.574219 205.027344 216.628906 205.285156 216.691406 205.546875 L 216.75 205.863281 C 216.789062 206.097656 216.839844 206.378906 216.941406 206.683594 C 217.246094 207.621094 217.535156 208.554688 217.886719 209.683594 C 218.855469 213.082031 219.59375 216.582031 220.097656 220.125 C 219.621094 220.058594 219.148438 219.988281 218.6875 219.910156 C 216.453125 219.535156 214.480469 219.128906 212.644531 218.675781 C 210.625 218.183594 208.707031 217.628906 206.789062 216.984375 C 202.132812 215.398438 196.957031 217.523438 194.746094 221.929688 C 192.699219 226.011719 190.269531 229.9375 187.5 233.617188 C 184.75 229.949219 182.320312 226.027344 180.265625 221.933594 C 178.578125 218.554688 175.179688 216.457031 171.402344 216.457031 C 170.339844 216.457031 169.285156 216.625 168.269531 216.964844 C 163.9375 218.410156 159.441406 219.464844 154.890625 220.113281 C 155.539062 215.554688 156.597656 211.0625 158.039062 206.730469 C 159.582031 202.085938 157.441406 196.925781 153.058594 194.730469 C 148.96875 192.683594 145.050781 190.261719 141.386719 187.507812 C 145.058594 184.742188 148.988281 182.308594 153.078125 180.253906 C 157.449219 178.054688 159.582031 172.894531 158.035156 168.253906 C 156.59375 163.933594 155.535156 159.453125 154.890625 154.898438 C 159.445312 155.546875 163.9375 156.601562 168.269531 158.042969 C 172.90625 159.582031 178.074219 157.457031 180.269531 153.074219 C 182.328125 148.976562 184.753906 145.054688 187.503906 141.390625 C 190.273438 145.074219 192.703125 149 194.75 153.078125 C 196.945312 157.460938 202.105469 159.59375 206.75 158.039062 C 211.082031 156.597656 215.566406 155.542969 220.105469 154.898438 C 219.605469 158.421875 218.855469 161.945312 217.828125 165.519531 C 217.539062 166.453125 217.25 167.390625 216.949219 168.328125 C 216.855469 168.613281 216.796875 168.902344 216.695312 169.457031 C 216.636719 169.726562 216.582031 169.992188 216.558594 170.226562 C 216.507812 170.625 216.5 170.988281 216.5 171.328125 C 216.496094 171.65625 216.507812 171.976562 216.539062 172.347656 C 216.574219 172.695312 216.613281 173.035156 216.675781 173.324219 C 216.765625 173.765625 216.890625 174.179688 217.023438 174.578125 C 217.128906 174.894531 217.246094 175.210938 217.386719 175.519531 C 217.605469 176.007812 217.863281 176.472656 218.085938 176.789062 L 218.347656 177.21875 C 218.484375 177.410156 218.632812 177.578125 218.679688 177.601562 C 218.960938 177.949219 219.277344 178.292969 219.675781 178.671875 C 219.839844 178.824219 220.003906 178.972656 220.183594 179.121094 C 220.617188 179.46875 221.09375 179.789062 221.507812 180.007812 L 221.957031 180.277344 C 226.027344 182.3125 229.945312 184.738281 233.617188 187.503906 C 229.9375 190.257812 226.027344 192.679688 221.957031 194.71875 Z M 219.632812 198.699219 Z M 219.632812 198.699219 " fill-opacity="1" fill-rule="nonzero"/><path fill="#33cf96" d="M 219.386719 110.523438 L 216.769531 111.628906 C 209.195312 114.839844 202.121094 119.207031 195.75 124.597656 L 193.605469 126.402344 L 195.417969 128.539062 C 198.953125 132.691406 202.078125 137.074219 204.703125 141.5625 L 205.777344 143.390625 L 207.824219 142.851562 C 212.835938 141.53125 218.136719 140.644531 223.582031 140.203125 L 226.371094 139.976562 L 226.136719 137.1875 C 225.441406 128.886719 223.53125 120.800781 220.453125 113.15625 Z M 208.441406 136.941406 C 206.375 133.59375 204.039062 130.292969 201.484375 127.113281 C 206.085938 123.488281 211.058594 120.417969 216.304688 117.949219 C 218.265625 123.410156 219.605469 129.101562 220.296875 134.90625 C 216.242188 135.351562 212.265625 136.035156 208.441406 136.941406 Z M 208.441406 136.941406 " fill-opacity="1" fill-rule="nonzero"/><g clip-path="url(#8022608cc7)"><path fill="#33cf96" d="M 187.496094 73.992188 L 185.976562 74.992188 C 181.183594 78.117188 176.714844 81.757812 172.6875 85.800781 C 168.46875 90.023438 164.652344 94.808594 161.347656 100.027344 L 159.605469 102.769531 L 162.582031 104.078125 C 170.976562 107.757812 178.742188 112.664062 185.667969 118.652344 L 187.496094 120.234375 L 189.320312 118.652344 C 196.242188 112.667969 204.011719 107.757812 212.421875 104.074219 L 215.394531 102.773438 L 213.660156 100.027344 C 210.347656 94.792969 206.535156 90.003906 202.320312 85.792969 C 198.285156 81.761719 193.816406 78.128906 189.023438 74.992188 Z M 207.183594 100.335938 C 200.128906 103.71875 193.519531 107.929688 187.5 112.890625 C 181.464844 107.929688 174.867188 103.71875 167.828125 100.34375 C 170.488281 96.496094 173.449219 92.9375 176.644531 89.742188 C 179.964844 86.410156 183.617188 83.363281 187.5 80.6875 C 191.394531 83.363281 195.046875 86.40625 198.378906 89.734375 C 201.570312 92.925781 204.527344 96.484375 207.183594 100.335938 Z M 207.183594 100.335938 " fill-opacity="1" fill-rule="nonzero"/></g><path fill="#33cf96" d="M 249.125 269.867188 C 254.835938 269.867188 260.503906 269.285156 265.980469 268.140625 L 267.773438 267.769531 L 268.140625 265.976562 C 269.300781 260.453125 269.890625 254.722656 269.890625 248.957031 C 269.890625 242.90625 269.214844 236.816406 267.878906 230.859375 L 267.164062 227.691406 L 264.140625 228.875 C 262.453125 229.535156 260.941406 230.082031 259.523438 230.550781 L 259.015625 230.710938 C 258.414062 230.90625 257.8125 231.097656 257.226562 231.269531 L 256.875 231.375 C 251.0625 233.101562 244.992188 234.253906 238.539062 234.816406 L 235.054688 235.054688 L 234.878906 237.480469 C 234.21875 246.609375 232.1875 255.574219 228.851562 264.125 L 227.671875 267.152344 L 230.84375 267.863281 C 236.8125 269.191406 242.957031 269.867188 249.125 269.867188 Z M 240.234375 240.359375 L 241.875 240.25 L 241.875 240.09375 C 247.527344 239.449219 253.078125 238.320312 258.382812 236.746094 L 258.816406 236.621094 C 259.449219 236.433594 260.09375 236.226562 260.722656 236.023438 L 263.082031 235.265625 C 263.898438 239.792969 264.316406 244.390625 264.316406 248.957031 C 264.316406 253.707031 263.882812 258.4375 263.039062 263.027344 C 253.964844 264.695312 244.40625 264.695312 235.210938 263.046875 C 237.789062 255.699219 239.476562 248.085938 240.234375 240.359375 Z M 240.234375 240.359375 " fill-opacity="1" fill-rule="nonzero"/><path fill="#33cf96" d="M 246.453125 195.429688 C 242.296875 198.96875 237.917969 202.085938 233.441406 204.707031 L 231.613281 205.769531 L 232.148438 207.816406 C 233.171875 211.753906 233.945312 215.808594 234.457031 220.027344 C 234.597656 221.132812 234.707031 222.257812 234.792969 223.359375 L 235 226.359375 L 238.085938 226.148438 C 243.632812 225.660156 249.148438 224.617188 254.46875 223.035156 C 255.257812 222.804688 256.007812 222.566406 256.753906 222.324219 C 258.46875 221.761719 260.183594 221.132812 261.855469 220.460938 L 264.492188 219.398438 L 263.375 216.78125 C 260.15625 209.207031 255.789062 202.128906 250.394531 195.753906 L 248.59375 193.617188 Z M 257.058594 216.324219 C 256.378906 216.570312 255.699219 216.800781 255.023438 217.023438 C 254.339844 217.242188 253.636719 217.464844 252.851562 217.695312 C 248.707031 218.925781 244.429688 219.808594 240.113281 220.328125 C 240.074219 220 240.039062 219.671875 239.996094 219.34375 L 239.984375 219.242188 C 239.542969 215.617188 238.894531 211.992188 238.054688 208.445312 C 241.40625 206.382812 244.699219 204.054688 247.878906 201.496094 C 251.503906 206.101562 254.582031 211.078125 257.058594 216.324219 Z M 257.058594 216.324219 " fill-opacity="1" fill-rule="nonzero"/><path fill="#33cf96" d="M 264.488281 155.621094 L 261.855469 154.558594 C 254.230469 151.480469 246.152344 149.558594 237.835938 148.859375 L 235.046875 148.625 L 234.824219 151.410156 C 234.71875 152.652344 234.597656 153.878906 234.457031 155.058594 C 233.960938 159.125 233.1875 163.207031 232.148438 167.1875 L 231.617188 169.234375 L 233.445312 170.300781 C 237.917969 172.917969 242.296875 176.039062 246.457031 179.585938 L 248.59375 181.402344 L 250.394531 179.261719 C 255.789062 172.875 260.160156 165.804688 263.375 158.238281 Z M 247.878906 173.515625 C 244.703125 170.957031 241.40625 168.621094 238.054688 166.558594 C 238.90625 162.96875 239.554688 159.332031 239.992188 155.71875 C 240.03125 155.382812 240.070312 155.042969 240.109375 154.699219 C 245.925781 155.394531 251.613281 156.734375 257.054688 158.695312 C 254.582031 163.933594 251.507812 168.90625 247.878906 173.515625 Z M 247.878906 173.515625 " fill-opacity="1" fill-rule="nonzero"/><path fill="#33cf96" d="M 267.882812 144.152344 C 269.214844 138.195312 269.890625 132.109375 269.890625 126.066406 C 269.890625 120.285156 269.296875 114.550781 268.125 109.015625 L 267.746094 107.234375 L 265.96875 106.863281 C 254.542969 104.460938 242.402344 104.558594 230.847656 107.152344 L 227.683594 107.867188 L 228.863281 110.890625 C 232.195312 119.441406 234.21875 128.40625 234.878906 137.539062 L 235.054688 139.945312 L 237.460938 140.121094 C 246.632812 140.785156 255.609375 142.8125 264.140625 146.148438 L 267.167969 147.328125 Z M 263.070312 139.796875 C 255.703125 137.207031 248.039062 135.511719 240.246094 134.75 C 239.492188 126.980469 237.800781 119.332031 235.210938 111.960938 C 244.410156 110.296875 253.964844 110.300781 263.023438 111.96875 C 263.878906 116.558594 264.3125 121.292969 264.3125 126.066406 C 264.3125 130.640625 263.894531 135.25 263.070312 139.796875 Z M 263.070312 139.796875 " fill-opacity="1" fill-rule="nonzero"/><g clip-path="url(#93da1fbc1c)"><path fill="#33cf96" d="M 272.238281 215.410156 L 274.984375 213.667969 C 280.191406 210.359375 284.976562 206.546875 289.203125 202.332031 C 293.21875 198.335938 296.851562 193.859375 300.007812 189.03125 L 301.007812 187.5 L 300.007812 185.976562 C 296.871094 181.175781 293.234375 176.707031 289.210938 172.699219 C 284.996094 168.480469 280.210938 164.664062 274.980469 161.351562 L 272.238281 159.613281 L 270.933594 162.585938 C 267.246094 170.984375 262.332031 178.753906 256.34375 185.679688 L 254.765625 187.5 L 256.34375 189.332031 C 262.335938 196.25 267.246094 204.023438 270.9375 212.429688 Z M 274.660156 167.832031 C 278.503906 170.488281 282.0625 173.449219 285.269531 176.652344 C 288.589844 179.960938 291.628906 183.609375 294.316406 187.503906 C 291.621094 191.421875 288.582031 195.074219 285.261719 198.378906 C 282.0625 201.570312 278.503906 204.53125 274.664062 207.1875 C 271.28125 200.136719 267.0625 193.53125 262.101562 187.503906 C 267.058594 181.476562 271.277344 174.871094 274.660156 167.832031 Z M 274.660156 167.832031 " fill-opacity="1" fill-rule="nonzero"/></g></svg>